# xmcd
# 
# Track frame offsets:
#     150
#     19785
#     39250
#     57910
#     80780
#     97115
#     115082
#     131805
#     153135
#     172182
#     208090
# 
# Disc length: 4440
# 
# Revision: 2
# Processed by: cddbd v1.5.2PL0 Copyright (c) Steve Scherf et al.
# Submitted via: BonkEnc v1.0.8
# 
DISCID=9411560b
DTITLE=氷室京介 - FOLLOW THE WIND
DYEAR=2003
DGENRE=J-pop
TTITLE0=VIRUS
TTITLE1=Weekend Shuffle
TTITLE2=FOLLOW THE WIND
TTITLE3=MONOCHROME RAINBOW
TTITLE4=LOVE SHAKER
TTITLE5=Claudia
TTITLE6=FOOL MEN'S PARADE
TTITLE7=SACRIFICE
TTITLE8=RAP ON TRAP
TTITLE9=ARROWS
TTITLE10=CCCD
EXTD=YEAR: 2003
EXTT0=
EXTT1=
EXTT2=
EXTT3=
EXTT4=
EXTT5=
EXTT6=
EXTT7=
EXTT8=
EXTT9=
EXTT10=
PLAYORDER=
